HIERARCHY
ROOT joint_Root
{
	OFFSET 0.0 0.0 0.0
	CHANNELS 6 Xposition Yposition Zposition Zrotation Xrotation Yrotation 
	JOINT Hips
	{
		OFFSET -0.726466 93.3139 -2.00062
		CHANNELS 6 Xposition Yposition Zposition Zrotation Xrotation Yrotation 
		JOINT Spine
		{
			OFFSET 15.7357 0.0 0.0
			CHANNELS 6 Xposition Yposition Zposition Zrotation Xrotation Yrotation 
			JOINT Chest
			{
				OFFSET 8.98455 -0.406207 0.0
				CHANNELS 6 Xposition Yposition Zposition Zrotation Xrotation Yrotation 
				JOINT Neck
				{
					OFFSET 16.3773 0.0 0.0
					CHANNELS 6 Xposition Yposition Zposition Zrotation Xrotation Yrotation 
					JOINT Head
					{
						OFFSET 6.45672 0.0 0.0
						CHANNELS 6 Xposition Yposition Zposition Zrotation Xrotation Yrotation 
						End Site
						{
							OFFSET 0.0 0.0 0.0
						}
					}
				}
				JOINT Shoulder_L
				{
					OFFSET 12.9942 -0.242716 4.98039
					CHANNELS 6 Xposition Yposition Zposition Zrotation Xrotation Yrotation 
					JOINT UpperArm_L
					{
						OFFSET 5.34809 0.0 0.0
						CHANNELS 6 Xposition Yposition Zposition Zrotation Xrotation Yrotation 
						JOINT LowerArm_L
						{
							OFFSET 24.3286 1.87007e-05 0.0
							CHANNELS 6 Xposition Yposition Zposition Zrotation Xrotation Yrotation 
							JOINT Hand_L
							{
								OFFSET 22.2916 0.0 0.0
								CHANNELS 6 Xposition Yposition Zposition Zrotation Xrotation Yrotation 
								End Site
								{
									OFFSET 0.0 0.0 0.0
								}
							}
						}
					}
				}
				JOINT Shoulder_R
				{
					OFFSET 12.9945 -0.242716 -4.98039
					CHANNELS 6 Xposition Yposition Zposition Zrotation Xrotation Yrotation 
					JOINT UpperArm_R
					{
						OFFSET -5.34813 0.0 0.0
						CHANNELS 6 Xposition Yposition Zposition Zrotation Xrotation Yrotation 
						JOINT LowerArm_R
						{
							OFFSET -24.3289 0.000322201 0.0
							CHANNELS 6 Xposition Yposition Zposition Zrotation Xrotation Yrotation 
							JOINT Hand_R
							{
								OFFSET -22.2915 -0.000108084 0.0
								CHANNELS 6 Xposition Yposition Zposition Zrotation Xrotation Yrotation 
								End Site
								{
									OFFSET 0.0 0.0 0.0
								}
							}
						}
					}
				}
			}
		}
		JOINT UpperLeg_L
		{
			OFFSET -2.19248 -6.46944 0.0
			CHANNELS 6 Xposition Yposition Zposition Zrotation Xrotation Yrotation 
			JOINT LowerLeg_L
			{
				OFFSET 39.0811 0.0 -1.23785e-05
				CHANNELS 6 Xposition Yposition Zposition Zrotation Xrotation Yrotation 
				JOINT Foot_L
				{
					OFFSET 40.9854 0.0 -1.26872e-05
					CHANNELS 6 Xposition Yposition Zposition Zrotation Xrotation Yrotation 
					JOINT Toes_L
					{
						OFFSET 11.7543 0.0 0.0
						CHANNELS 6 Xposition Yposition Zposition Zrotation Xrotation Yrotation 
						End Site
						{
							OFFSET 0.0 0.0 0.0
						}
					}
				}
			}
		}
		JOINT UpperLeg_R
		{
			OFFSET -2.19251 6.46944 0.0
			CHANNELS 6 Xposition Yposition Zposition Zrotation Xrotation Yrotation 
			JOINT LowerLeg_R
			{
				OFFSET -39.0811 -0.00228153 -0.0401928
				CHANNELS 6 Xposition Yposition Zposition Zrotation Xrotation Yrotation 
				JOINT Foot_R
				{
					OFFSET -40.9854 0.0 0.0
					CHANNELS 6 Xposition Yposition Zposition Zrotation Xrotation Yrotation 
					JOINT Toes_R
					{
						OFFSET -11.7543 0.0 0.0
						CHANNELS 6 Xposition Yposition Zposition Zrotation Xrotation Yrotation 
						End Site
						{
							OFFSET 0.0 0.0 0.0
						}
					}
				}
			}
		}
	}
}
MOTION
Frames:	9
Frame Time:	0.0333333
0.000000 0.000000 0.000000 0.000000 0.000000 -0.000000 -2.138130 92.370600 -2.040610 88.544000 0.176595 3.873040 15.735700 0.000005 -0.000001 77.147500 85.683600 -75.626100 8.984550 -0.406207 -0.000000 0.679709 -2.013690 3.052590 16.377300 -0.000001 -0.000001 2.472110 -1.809860 -2.340310 6.456720 -0.000001 -0.000000 4.171960 -2.078200 -2.290550 12.994200 -0.242716 4.980390 -88.060200 -5.653540 -71.026400 5.348090 -0.000007 -0.000001 -81.343000 -30.356600 -85.543600 24.328600 0.000019 0.000005 3.185240 0.131039 -87.646900 22.291600 -0.000001 0.000005 18.865100 5.596600 -11.141100 12.994500 -0.242716 -4.980390 88.269600 5.713130 -73.118000 -5.348130 -0.000001 -0.000004 -63.742600 40.001400 -16.293900 -24.328900 0.000322 -0.000009 2.028790 7.210630 -15.768000 -22.291500 -0.000108 -0.000004 8.290890 5.426340 -3.813920 -2.192480 -6.469440 -0.000000 -175.159000 -5.706160 -3.199730 39.081100 -0.000007 -0.000012 -0.107146 0.262933 22.171100 40.985400 -0.000006 -0.000013 -0.933347 4.538340 -65.298800 11.754300 -0.000000 0.000003 -0.000025 -0.000306 -16.589500 -2.192510 6.469440 -0.000001 -179.520000 14.317200 179.774000 -39.081100 -0.002282 -0.040193 -0.022219 0.072809 19.331200 -40.985400 0.000008 0.000006 4.696760 6.079870 -65.988600 -11.754300 -0.000006 -0.000006 -0.006020 -0.071013 -19.463200
0.000000 0.000000 0.000000 0.000000 0.000000 -0.000000 -2.115770 92.366500 -2.044780 88.540100 0.140420 3.874720 15.735700 0.000005 -0.000001 77.412600 85.671300 -75.894300 8.984550 -0.406207 -0.000000 0.712007 -1.979480 3.046830 16.377300 -0.000001 -0.000001 2.385450 -1.824900 -2.306150 6.456720 -0.000001 -0.000000 4.105490 -2.130760 -2.318200 12.994200 -0.242716 4.980390 -88.060800 -5.649210 -71.018700 5.348090 -0.000007 -0.000001 -81.057200 -30.468700 -84.939100 24.328600 0.000019 0.000005 2.968400 0.099659 -88.079100 22.291600 -0.000001 0.000005 18.907900 5.597650 -11.203900 12.994500 -0.242716 -4.980390 88.262600 5.741370 -73.132300 -5.348130 -0.000001 -0.000004 -63.801200 40.140300 -16.406000 -24.328900 0.000322 -0.000009 2.021160 7.150530 -15.836400 -22.291500 -0.000108 -0.000004 8.268820 5.427660 -3.858940 -2.192480 -6.469440 -0.000000 -175.176000 -5.706560 -3.213070 39.081100 -0.000007 -0.000012 -0.105942 0.259456 22.211400 40.985400 -0.000006 -0.000013 -0.913216 4.527230 -65.325000 11.754300 -0.000000 0.000003 -0.000024 -0.000294 -16.589100 -2.192510 6.469440 -0.000001 -179.533000 14.291000 179.748000 -39.081100 -0.002282 -0.040193 -0.022550 0.073575 19.374000 -40.985400 0.000008 0.000006 4.681530 6.091720 -65.999700 -11.754300 -0.000006 -0.000006 -0.005997 -0.070807 -19.454800
0.000000 0.000000 0.000000 0.000000 0.000000 -0.000000 -2.088110 92.373700 -2.047940 88.548500 0.131817 3.848910 15.735700 0.000005 -0.000001 77.597200 85.674000 -76.088400 8.984550 -0.406207 -0.000000 0.712195 -1.950510 3.027750 16.377300 -0.000001 -0.000001 2.322760 -1.831150 -2.233820 6.456720 -0.000001 -0.000000 4.094360 -2.195060 -2.324600 12.994200 -0.242716 4.980390 -88.060000 -5.664470 -71.059300 5.348090 -0.000007 -0.000001 -80.376400 -30.577200 -83.564500 24.328600 0.000019 0.000005 2.546110 0.046913 -88.947300 22.291600 -0.000001 0.000005 19.084800 5.598280 -11.239700 12.994500 -0.242716 -4.980390 88.240400 5.817770 -73.139900 -5.348130 -0.000001 -0.000004 -63.805400 40.342700 -16.498000 -24.328900 0.000322 -0.000009 1.981660 7.011570 -15.833200 -22.291500 -0.000108 -0.000004 8.311360 5.428540 -3.888860 -2.192480 -6.469440 -0.000000 -175.200000 -5.715670 -3.218350 39.081100 -0.000007 -0.000012 -0.107432 0.263766 22.161100 40.985400 -0.000006 -0.000013 -0.906274 4.504420 -65.295500 11.754300 -0.000000 0.000003 -0.000023 -0.000284 -16.588700 -2.192510 6.469440 -0.000001 -179.545000 14.264200 179.734000 -39.081100 -0.002282 -0.040193 -0.022347 0.073169 19.332600 -40.985400 0.000008 0.000006 4.655010 6.071830 -65.966100 -11.754300 -0.000006 -0.000006 -0.005809 -0.069087 -19.384700
0.000000 0.000000 0.000000 0.000000 0.000000 -0.000000 -2.064400 92.366100 -2.032370 88.541800 0.142997 3.887180 15.735700 0.000005 -0.000001 77.918600 85.660000 -76.410600 8.984550 -0.406207 -0.000000 0.749267 -1.908400 3.026540 16.377300 -0.000001 -0.000001 2.327960 -1.835010 -2.102750 6.456720 -0.000001 -0.000000 4.031760 -2.251080 -2.374330 12.994200 -0.242716 4.980390 -88.101300 -5.567000 -71.133000 5.348090 -0.000007 -0.000001 -79.058100 -30.462400 -81.163300 24.328600 0.000019 0.000005 1.567530 -0.008743 -90.328100 22.291600 -0.000001 0.000005 19.325100 5.599890 -11.335600 12.994500 -0.242716 -4.980390 88.212200 5.907450 -73.129500 -5.348130 -0.000001 -0.000004 -63.883600 40.393100 -16.451700 -24.328900 0.000322 -0.000009 2.018980 7.113160 -15.898700 -22.291500 -0.000108 -0.000004 8.293590 5.429260 -3.913680 -2.192480 -6.469440 -0.000000 -175.216000 -5.696060 -3.203370 39.081100 -0.000007 -0.000012 -0.105711 0.258702 22.226000 40.985400 -0.000006 -0.000013 -0.882342 4.490330 -65.340500 11.754300 -0.000000 0.000003 -0.000027 -0.000325 -16.590300 -2.192510 6.469440 -0.000001 -179.564000 14.216700 179.772000 -39.081100 -0.002282 -0.040193 -0.023319 0.075775 19.370900 -40.985400 0.000008 0.000006 4.613940 6.025100 -65.993200 -11.754300 -0.000006 -0.000006 -0.006044 -0.071232 -19.472200
0.000000 0.000000 0.000000 0.000000 0.000000 -0.000000 -2.043770 92.362500 -2.026610 88.546100 0.182765 3.909210 15.735700 0.000005 -0.000001 78.529500 85.648600 -77.033500 8.984550 -0.406207 -0.000000 0.788997 -1.821080 3.002510 16.377300 -0.000001 -0.000001 2.269330 -1.838160 -1.930610 6.456720 -0.000001 -0.000000 4.036970 -2.319280 -2.335700 12.994200 -0.242716 4.980390 -88.182400 -5.350130 -71.204700 5.348090 -0.000007 -0.000001 -76.844000 -29.814200 -77.576300 24.328600 0.000019 0.000005 0.246436 -0.008735 -92.117700 22.291600 -0.000001 0.000005 19.624000 5.600710 -11.385100 12.994500 -0.242716 -4.980390 88.163100 6.047570 -73.069300 -5.348130 -0.000001 -0.000004 -63.917100 40.493500 -16.358900 -24.328900 0.000322 -0.000009 2.046050 7.179940 -15.959600 -22.291500 -0.000108 -0.000004 8.413620 5.429640 -3.926590 -2.192480 -6.469440 -0.000000 -175.235000 -5.689010 -3.192720 39.081100 -0.000007 -0.000012 -0.105565 0.257993 22.253400 40.985400 -0.000006 -0.000013 -0.861701 4.500000 -65.359900 11.754300 -0.000000 0.000003 -0.000024 -0.000296 -16.589100 -2.192510 6.469440 -0.000001 -179.585000 14.165800 179.784000 -39.081100 -0.002282 -0.040193 -0.023954 0.077458 19.399100 -40.985400 0.000008 0.000006 4.568040 5.964140 -66.001900 -11.754300 -0.000006 -0.000006 -0.005969 -0.070556 -19.444600
0.000000 0.000000 0.000000 0.000000 0.000000 -0.000000 -2.003300 92.354100 -2.005320 88.552000 0.215291 4.002590 15.735700 0.000005 -0.000001 79.309400 85.617400 -77.826900 8.984550 -0.406207 -0.000000 0.871504 -1.714540 2.975940 16.377300 -0.000001 -0.000001 2.253070 -1.861700 -1.728090 6.456720 -0.000001 -0.000000 4.025140 -2.373350 -2.306200 12.994200 -0.242716 4.980390 -88.323500 -4.955850 -71.282800 5.348090 -0.000007 -0.000001 -73.546600 -28.536000 -72.690800 24.328600 0.000019 0.000005 -0.913947 0.066528 -94.140000 22.291600 -0.000001 0.000005 19.401700 5.598970 -11.281400 12.994500 -0.242716 -4.980390 88.129100 6.149900 -73.042800 -5.348130 -0.000001 -0.000004 -64.057000 40.512400 -16.201200 -24.328900 0.000322 -0.000009 2.048570 7.197410 -15.941600 -22.291500 -0.000108 -0.000004 8.431630 5.429870 -3.934630 -2.192480 -6.469440 -0.000000 -175.259000 -5.632440 -3.121750 39.081100 -0.000007 -0.000012 -0.106958 0.260641 22.311600 40.985400 -0.000006 -0.000013 -0.835108 4.492170 -65.401800 11.754300 -0.000000 0.000003 -0.000025 -0.000306 -16.589500 -2.192510 6.469440 -0.000001 -179.649000 14.205300 179.877000 -39.081100 -0.002282 -0.040193 -0.023862 0.076963 19.453600 -40.985400 0.000008 0.000006 4.541270 5.964790 -66.045800 -11.754300 -0.000006 -0.000006 -0.006087 -0.071624 -19.488200
0.000000 0.000000 0.000000 0.000000 0.000000 -0.000000 -1.966760 92.339400 -1.989440 88.554500 0.321784 4.134250 15.735700 0.000005 -0.000001 80.009300 85.567000 -78.546600 8.984550 -0.406207 -0.000000 0.988360 -1.624010 2.937170 16.377300 -0.000001 -0.000001 2.188800 -1.979120 -1.489930 6.456720 -0.000001 -0.000000 4.079390 -2.411760 -2.320500 12.994200 -0.242716 4.980390 -88.518300 -4.465930 -71.624400 5.348090 -0.000007 -0.000001 -69.395800 -26.686200 -66.597000 24.328600 0.000019 0.000005 -1.536350 0.170226 -96.321700 22.291600 -0.000001 0.000005 18.665000 5.599470 -11.310300 12.994500 -0.242716 -4.980390 88.097800 6.227010 -72.975800 -5.348130 -0.000001 -0.000004 -64.245200 40.517200 -16.056100 -24.328900 0.000322 -0.000009 2.045500 7.224260 -15.862900 -22.291500 -0.000108 -0.000004 8.294380 5.428550 -3.889400 -2.192480 -6.469440 -0.000000 -175.277000 -5.570940 -3.039320 39.081100 -0.000007 -0.000012 -0.105907 0.256717 22.418400 40.985400 -0.000006 -0.000013 -0.793592 4.540430 -65.469100 11.754300 -0.000000 0.000003 -0.000024 -0.000292 -16.589000 -2.192510 6.469440 -0.000001 -179.722000 14.228300 179.982000 -39.081100 -0.002282 -0.040193 -0.026600 0.084248 19.553500 -40.985400 0.000008 0.000006 4.465040 5.902880 -66.099400 -11.754300 -0.000006 -0.000006 -0.006022 -0.071034 -19.464100
0.000000 0.000000 0.000000 0.000000 0.000000 -0.000000 -1.928040 92.335600 -1.988070 88.536500 0.409871 4.198930 15.735700 0.000005 -0.000001 80.250500 85.534000 -78.806100 8.984550 -0.406207 -0.000000 1.059180 -1.596420 2.901430 16.377300 -0.000001 -0.000001 2.058650 -2.130170 -1.242290 6.456720 -0.000001 -0.000000 4.171980 -2.410560 -2.359610 12.994200 -0.242716 4.980390 -88.745500 -3.856980 -71.967500 5.348090 -0.000007 -0.000001 -64.698700 -23.917300 -59.687700 24.328600 0.000019 0.000005 -1.520910 0.218304 -98.163100 22.291600 -0.000001 0.000005 17.569500 5.597320 -11.183800 12.994500 -0.242716 -4.980390 88.059800 6.312280 -72.875100 -5.348130 -0.000001 -0.000004 -64.357100 40.639000 -16.002900 -24.328900 0.000322 -0.000009 2.042870 7.282480 -15.724000 -22.291500 -0.000108 -0.000004 8.238820 5.429460 -3.920390 -2.192480 -6.469440 -0.000000 -175.277000 -5.565690 -3.022060 39.081100 -0.000007 -0.000012 -0.106071 0.256335 22.479700 40.985400 -0.000006 -0.000013 -0.747823 4.611180 -65.490600 11.754300 -0.000000 0.000003 -0.000024 -0.000299 -16.589300 -2.192510 6.469440 -0.000001 -179.741000 14.260200 -179.949000 -39.081100 -0.002282 -0.040193 -0.025600 0.081404 19.559600 -40.985400 0.000008 0.000006 4.421770 5.852640 -66.100300 -11.754300 -0.000006 -0.000006 -0.006038 -0.071183 -19.470200
0.000000 0.000000 0.000000 0.000000 0.000000 -0.000000 -1.879020 92.323100 -1.982630 88.535600 0.395915 4.217860 15.735700 0.000005 -0.000001 80.448100 85.518600 -79.016800 8.984550 -0.406207 -0.000000 1.094220 -1.569970 2.875340 16.377300 -0.000001 -0.000001 1.979470 -2.233270 -1.033930 6.456720 -0.000001 -0.000000 4.135680 -2.439820 -2.421990 12.994200 -0.242716 4.980390 -89.011200 -3.068030 -72.127400 5.348090 -0.000007 -0.000001 -59.813800 -19.757800 -52.576000 24.328600 0.000019 0.000005 -2.428940 0.385436 -99.010200 22.291600 -0.000001 0.000005 16.058600 5.595330 -11.063500 12.994500 -0.242716 -4.980390 88.025500 6.356260 -72.703000 -5.348130 -0.000001 -0.000004 -64.456000 40.703700 -15.984500 -24.328900 0.000322 -0.000009 2.036650 7.282660 -15.678100 -22.291500 -0.000108 -0.000004 8.266730 5.428160 -3.876070 -2.192480 -6.469440 -0.000000 -175.299000 -5.595460 -3.046690 39.081100 -0.000007 -0.000012 -0.107702 0.258995 22.579900 40.985400 -0.000006 -0.000013 -0.710958 4.625400 -65.548900 11.754300 -0.000000 0.000003 -0.000027 -0.000332 -16.590500 -2.192510 6.469440 -0.000001 -179.794000 14.197300 -179.966000 -39.081100 -0.002282 -0.040193 -0.029579 0.092188 19.641000 -40.985400 0.000008 0.000006 4.250640 5.839770 -66.116300 -11.754300 -0.000006 -0.000006 -0.005913 -0.070043 -19.423700
